/* XPM */
static char * trophy32_xpm[] = {
"32 32 328 2",
"  	c None",
". 	c #393C2B",
"+ 	c #737450",
"@ 	c #8A7E25",
"# 	c #A3901A",
"$ 	c #947E18",
"% 	c #78661E",
"& 	c #68571F",
"* 	c #5C4C1C",
"= 	c #5A481A",
"- 	c #5A4919",
"; 	c #624E1D",
"> 	c #755A1E",
", 	c #846F20",
"' 	c #736B1C",
") 	c #746425",
"! 	c #666025",
"~ 	c #3F4233",
"{ 	c #F5F5A2",
"] 	c #FAF85D",
"^ 	c #FDF44C",
"/ 	c #F1E750",
"( 	c #DEDF3D",
"_ 	c #D8DD33",
": 	c #D5DD31",
"< 	c #D0D82C",
"[ 	c #D0CF30",
"} 	c #D3C038",
"| 	c #DABF2A",
"1 	c #E7C824",
"2 	c #EAD21F",
"3 	c #EBC911",
"4 	c #AF9A24",
"5 	c #453F40",
"6 	c #E9E888",
"7 	c #FCFC35",
"8 	c #FFFE38",
"9 	c #FFFE40",
"0 	c #FFFC42",
"a 	c #FFFB46",
"b 	c #FFFA46",
"c 	c #FEF844",
"d 	c #FDF637",
"e 	c #F5E114",
"f 	c #ECBB02",
"g 	c #F6B504",
"h 	c #F6B407",
"i 	c #F1BA06",
"j 	c #9C8221",
"k 	c #9E9D53",
"l 	c #C9CD5C",
"m 	c #90903D",
"n 	c #493E2D",
"o 	c #99904F",
"p 	c #FBFC36",
"q 	c #FFFE3C",
"r 	c #FEFF39",
"s 	c #FEFE3A",
"t 	c #FEFD3E",
"u 	c #FEFE3F",
"v 	c #FDFE41",
"w 	c #FCFC43",
"x 	c #EBCD19",
"y 	c #EBBA06",
"z 	c #F0B804",
"A 	c #D6A414",
"B 	c #685410",
"C 	c #6B6B58",
"D 	c #989B4B",
"E 	c #BEC06E",
"F 	c #798244",
"G 	c #656257",
"H 	c #C6D06A",
"I 	c #727337",
"J 	c #A2A748",
"K 	c #B6BD50",
"L 	c #8C8A3B",
"M 	c #EAE83A",
"N 	c #FFFD42",
"O 	c #FFFE3F",
"P 	c #FFFF3E",
"Q 	c #FFFF40",
"R 	c #FEFF3F",
"S 	c #FDFC3D",
"T 	c #F3DA22",
"U 	c #ECBA02",
"V 	c #F0B802",
"W 	c #AA8415",
"X 	c #BBAA3A",
"Y 	c #B3AC46",
"Z 	c #90873F",
"` 	c #7F762B",
" .	c #AEAA54",
"..	c #75724B",
"+.	c #C3C966",
"@.	c #535135",
"#.	c #CCCC5C",
"$.	c #FAF845",
"%.	c #FFFD41",
"&.	c #FDFC3B",
"*.	c #F4DA20",
"=.	c #ECBA01",
"-.	c #F0B801",
";.	c #E1B21A",
">.	c #7B6127",
",.	c #B0AC4F",
"'.	c #C7C960",
").	c #D3D556",
"!.	c #FCFC3E",
"~.	c #FFFE42",
"{.	c #FFFF3F",
"].	c #FEFF3E",
"^.	c #FEFE3D",
"/.	c #F3D81D",
"(.	c #F1B800",
"_.	c #EFBC06",
":.	c #8B7025",
"<.	c #7D7A39",
"[.	c #B7B645",
"}.	c #CDCE59",
"|.	c #DFE259",
"1.	c #FDFD38",
"2.	c #FFFE3E",
"3.	c #FFFE44",
"4.	c #ECCD12",
"5.	c #F1B704",
"6.	c #886C19",
"7.	c #8B8231",
"8.	c #ACAC36",
"9.	c #AEB14E",
"0.	c #83813C",
"a.	c #3B4C18",
"b.	c #EBEE4C",
"c.	c #FDFA3D",
"d.	c #FFF93D",
"e.	c #FEF63E",
"f.	c #FEF83C",
"g.	c #FFFD3E",
"h.	c #FCFF3E",
"i.	c #FCFF3D",
"j.	c #FDF434",
"k.	c #EEBE07",
"l.	c #F6B502",
"m.	c #F3B701",
"n.	c #F5B507",
"o.	c #A8872D",
"p.	c #AFA450",
"q.	c #99903A",
"r.	c #CFD355",
"s.	c #504E2D",
"t.	c #F6F24E",
"u.	c #EED826",
"v.	c #EAC50D",
"w.	c #E8C10D",
"x.	c #EBC410",
"y.	c #F5D820",
"z.	c #FDEC30",
"A.	c #FFF83A",
"B.	c #FFF838",
"C.	c #F4D519",
"D.	c #F3B604",
"E.	c #F7B403",
"F.	c #EEB803",
"G.	c #F0B30A",
"H.	c #CEB321",
"I.	c #C2B845",
"J.	c #92913F",
"K.	c #CAC653",
"L.	c #A6963E",
"M.	c #9D7F18",
"N.	c #E7BA11",
"O.	c #EFB504",
"P.	c #F4B606",
"Q.	c #F1B402",
"R.	c #EEB604",
"S.	c #F3C00B",
"T.	c #F1C00A",
"U.	c #F5B603",
"V.	c #F2B703",
"W.	c #E9BC04",
"X.	c #D8AC0E",
"Y.	c #9C8325",
"Z.	c #A9A439",
"`.	c #C3BA4D",
" +	c #867425",
".+	c #87823C",
"++	c #968628",
"@+	c #A07823",
"#+	c #DFAB0C",
"$+	c #F5B700",
"%+	c #F5B504",
"&+	c #F4B602",
"*+	c #F4B600",
"=+	c #F3B700",
"-+	c #F3B601",
";+	c #F4B603",
">+	c #F3B603",
",+	c #EFB806",
"'+	c #AA801E",
")+	c #AD9A22",
"!+	c #837F2B",
"~+	c #786E42",
"{+	c #463230",
"]+	c #936E19",
"^+	c #EAB610",
"/+	c #EEBA01",
"(+	c #EEBA00",
"_+	c #EFB900",
":+	c #F0B800",
"<+	c #F1B802",
"[+	c #F2B802",
"}+	c #F5B601",
"|+	c #D2B20C",
"1+	c #583D25",
"2+	c #705D16",
"3+	c #EBBB08",
"4+	c #FAB20C",
"5+	c #ECB90C",
"6+	c #EFB902",
"7+	c #F2B604",
"8+	c #F0B706",
"9+	c #F0B803",
"0+	c #F0B900",
"a+	c #EFBB00",
"b+	c #DCBB1B",
"c+	c #4A3324",
"d+	c #262003",
"e+	c #C3A416",
"f+	c #F5B310",
"g+	c #FBB010",
"h+	c #F3B606",
"i+	c #F4B408",
"j+	c #F7B500",
"k+	c #F6B406",
"l+	c #8D6E1E",
"m+	c #4C4213",
"n+	c #D2B01C",
"o+	c #F1BA03",
"p+	c #F4B701",
"q+	c #F4B604",
"r+	c #F4B801",
"s+	c #F3B800",
"t+	c #EFBA02",
"u+	c #E7B614",
"v+	c #BB8C18",
"w+	c #3E2B19",
"x+	c #50481F",
"y+	c #AB9228",
"z+	c #ECB813",
"A+	c #F2B606",
"B+	c #F2B704",
"C+	c #ECB908",
"D+	c #D5B11C",
"E+	c #8D7625",
"F+	c #49351F",
"G+	c #5A4D29",
"H+	c #695E20",
"I+	c #76671D",
"J+	c #877314",
"K+	c #7A6613",
"L+	c #6D5821",
"M+	c #5C5925",
"N+	c #CFCA4C",
"O+	c #F5E853",
"P+	c #B3A02D",
"Q+	c #EBE53E",
"R+	c #E8CF14",
"S+	c #D4B637",
"T+	c #524A17",
"U+	c #6A5712",
"V+	c #563713",
"W+	c #848732",
"X+	c #E3E469",
"Y+	c #5F571A",
"Z+	c #B9BD3E",
"`+	c #FDF84F",
" @	c #95831C",
".@	c #DAD63B",
"+@	c #F8D823",
"@@	c #BA961F",
"#@	c #E8CF25",
"$@	c #D3A62A",
"%@	c #4A3322",
"&@	c #E3BD19",
"*@	c #F6B804",
"=@	c #CCA123",
"-@	c #423117",
";@	c #302813",
">@	c #CCB21F",
",@	c #F0BB05",
"'@	c #A4801C",
")@	c #312E16",
"!@	c #B3A25B",
"~@	c #EBDF5F",
"{@	c #C6C14E",
"]@	c #987824",
"^@	c #E7BD1D",
"/@	c #78601C",
"(@	c #E4E762",
"_@	c #DDDF35",
":@	c #988936",
"<@	c #9F903F",
"[@	c #FDFA42",
"}@	c #FCFD27",
"|@	c #F0FA56",
"1@	c #A1A12C",
"2@	c #7E7220",
"3@	c #B4B739",
"4@	c #FBFB36",
"5@	c #FBFA38",
"6@	c #E7DE33",
"7@	c #705616",
"8@	c #BDB227",
"9@	c #EEDB3C",
"0@	c #F2EE44",
"a@	c #F2E834",
"b@	c #E0CA42",
"c@	c #D1C831",
"d@	c #CCBA2A",
"e@	c #CDB832",
"f@	c #9B821D",
"g@	c #4D2A09",
"h@	c #6D5B03",
"i@	c #997B13",
"j@	c #927110",
"k@	c #7B641B",
"l@	c #635111",
"m@	c #432905",
"                                                                ",
"                . + @ # $ % & * = - ; > , ' ) !                 ",
"                ~ { ] ^ / ( _ : < [ } | 1 2 3 4                 ",
"                5 6 7 8 9 0 a b c d e f g h i j                 ",
"          k l m n o p q r s 9 t u v w x y z A B C D E F         ",
"        G H I J K L M N O P Q Q Q R S T U V W X Y Z `  .        ",
"        ..+.    @.#.$.%.9 P Q Q Q R &.*.=.-.;.>.      ,.        ",
"          '.      ).!.9 ~.{.Q Q Q ].^./.=.(._.:.    <.[.        ",
"          }.      |.1.2.3.Q Q Q Q R ^.4.=.(.5.6.    7.8.        ",
"          9.0.  a.b.c.d.e.f.g.O h.i.j.k.l.m.n.o.    p.q.        ",
"            r.  s.t.u.v.w.x.y.z.A.B.C.D.E.F.G.H.    I.          ",
"            J.K.L.M.N.V O.P.Q.R.S.T.z U.V.W.X.Y.Z.`. +          ",
"              .+++@+#+$+%+&+*+=+*+-+;+>+V.,+'+)+!+~+            ",
"                {+]+^+$+-./+(+_+:+(.<+V [+}+|+1+                ",
"                  2+3+4+5+6+>+>+>+7+8+9+0+a+b+c+                ",
"                  d+e+f+g+%+>+>+>+h+i+U.j+k+l+                  ",
"                    m+n+o+p+q+D.>+r+s+t+u+v+w+                  ",
"                      x+y+z+A+7+7+B+C+D+E+F+                    ",
"                          G+H+I+J+K+L+                          ",
"                            M+N+O+P+                            ",
"                              Q+R+S+                            ",
"                              T+U+V+                            ",
"                              W+X+Y+                            ",
"                              Z+`+ @                            ",
"                              .@+@@@                            ",
"                              #@9+$@                            ",
"                            %@&@*@=@                            ",
"                          -@;@>@,@'@)@                          ",
"                        !@~@{@]@^@/@(@_@:@                      ",
"                      <@[@}@|@1@2@3@4@5@6@7@                    ",
"                        8@9@0@a@b@c@d@e@f@                      ",
"                          g@h@i@j@k@l@m@                        "};
