/* XPM */
static char * runner24_xpm[] = {
"24 24 299 2",
"  	c None",
". 	c #8FC641",
"+ 	c #8AC340",
"@ 	c #71B43A",
"# 	c #439931",
"$ 	c #2B8D2D",
"% 	c #278C30",
"& 	c #429B49",
"* 	c #439D43",
"= 	c #47A136",
"- 	c #72B83B",
"; 	c #8BC440",
"> 	c #90C741",
", 	c #93C841",
"' 	c #85BF3E",
") 	c #52A033",
"! 	c #2C882B",
"~ 	c #20842A",
"{ 	c #21862A",
"] 	c #258A2E",
"^ 	c #79B77F",
"/ 	c #D0E5D1",
"( 	c #BBDBBE",
"_ 	c #52A759",
": 	c #24932E",
"< 	c #2F9930",
"[ 	c #56AC37",
"} 	c #86C23F",
"| 	c #91C741",
"1 	c #77B53B",
"2 	c #348A2C",
"3 	c #1F8028",
"4 	c #208228",
"5 	c #3E9846",
"6 	c #D2E7D4",
"7 	c #FFFFFF",
"8 	c #FEFEFE",
"9 	c #9FCDA3",
"0 	c #24942E",
"a 	c #24952F",
"b 	c #259730",
"c 	c #3AA133",
"d 	c #78BD3D",
"e 	c #91C841",
"f 	c #64A836",
"g 	c #207C27",
"h 	c #1F7E28",
"i 	c #36933E",
"j 	c #C2DEC5",
"k 	c #F8FBF9",
"l 	c #8CC491",
"m 	c #24962F",
"n 	c #259830",
"o 	c #269A30",
"p 	c #289D31",
"q 	c #67B63B",
"r 	c #76B43A",
"s 	c #207A26",
"t 	c #1E7B26",
"u 	c #1F7D28",
"v 	c #22872B",
"w 	c #288C31",
"x 	c #63AB69",
"y 	c #B3D6B6",
"z 	c #90C595",
"A 	c #3C9D45",
"B 	c #269B30",
"C 	c #289C30",
"D 	c #78BC3D",
"E 	c #85BE3E",
"F 	c #32852A",
"G 	c #1E7926",
"H 	c #1F7D27",
"I 	c #469A4D",
"J 	c #B7D7B9",
"K 	c #98C79C",
"L 	c #C4DFC7",
"M 	c #80BC85",
"N 	c #3D9D45",
"O 	c #24952E",
"P 	c #25962F",
"Q 	c #269930",
"R 	c #259930",
"S 	c #39A033",
"T 	c #8FC640",
"U 	c #529A32",
"V 	c #1D7625",
"W 	c #1E7826",
"X 	c #1F7F28",
"Y 	c #208128",
"Z 	c #399141",
"` 	c #D3E6D5",
" .	c #BEDBC0",
"..	c #C1DCC3",
"+.	c #DAEADB",
"@.	c #C4DFC6",
"#.	c #24922E",
"$.	c #25942F",
"%.	c #56AB37",
"&.	c #8AC23F",
"*.	c #297C27",
"=.	c #1E7C27",
"-.	c #388E3F",
";.	c #AFD2B2",
">.	c #CEE4D0",
",.	c #58A45F",
"'.	c #C9E1CB",
").	c #9FCBA3",
"!.	c #89C08E",
"~.	c #E2EFE3",
"{.	c #35993E",
"].	c #2F9830",
"^.	c #70AF39",
"/.	c #1C7324",
"(.	c #1D7525",
"_.	c #1D7825",
":.	c #1E7A26",
"<.	c #2B8533",
"[.	c #96C29A",
"}.	c #EAF2EB",
"|.	c #519E58",
"1.	c #489A4F",
"2.	c #DAEBDC",
"3.	c #73B479",
"4.	c #4BA053",
"5.	c #DCECDD",
"6.	c #7EBC84",
"7.	c #23902D",
"8.	c #24912E",
"9.	c #72B73B",
"0.	c #3F8B2C",
"a.	c #1D7424",
"b.	c #74AC79",
"c.	c #DCE9DD",
"d.	c #6EAC73",
"e.	c #208329",
"f.	c #6BAD71",
"g.	c #EDF5ED",
"h.	c #489C50",
"i.	c #228A2B",
"j.	c #93C498",
"k.	c #CFE4D0",
"l.	c #58A85F",
"m.	c #82BE88",
"n.	c #A5D0A9",
"o.	c #35983E",
"p.	c #24902E",
"q.	c #238F2D",
"r.	c #449E33",
"s.	c #277825",
"t.	c #1C7224",
"u.	c #1C7424",
"v.	c #3E8E45",
"w.	c #AFD0B2",
"x.	c #B1D2B4",
"y.	c #399041",
"z.	c #89BD8E",
"A.	c #F5F9F5",
"B.	c #2D8C35",
"C.	c #21882B",
"D.	c #3F9847",
"E.	c #D5E6D7",
"F.	c #C5E0C7",
"G.	c #76B77C",
"H.	c #2C9235",
"I.	c #228E2C",
"J.	c #228D2C",
"K.	c #2C912E",
"L.	c #1C6F23",
"M.	c #1C7124",
"N.	c #1D7524",
"O.	c #1D7725",
"P.	c #1F7B27",
"Q.	c #398C41",
"R.	c #67A86D",
"S.	c #94C298",
"T.	c #CAE1CC",
"U.	c #22862A",
"V.	c #21872A",
"W.	c #22882B",
"X.	c #74B37A",
"Y.	c #6DB173",
"Z.	c #3E9947",
"`.	c #248D2E",
" +	c #228C2C",
".+	c #228B2C",
"++	c #1C6E23",
"@+	c #1C7023",
"#+	c #68A86E",
"$+	c #B1D1B4",
"%+	c #ACCFAF",
"&+	c #7AB57F",
"*+	c #298A32",
"=+	c #21882A",
"-+	c #22892B",
";+	c #277625",
">+	c #1C7123",
",+	c #33883B",
"'+	c #CEE2D0",
")+	c #7FB584",
"!+	c #DEECDF",
"~+	c #74B179",
"{+	c #278830",
"]+	c #21852A",
"^+	c #22872A",
"/+	c #2B8C2C",
"(+	c #3F872C",
"_+	c #1D7024",
":+	c #4B8F51",
"<+	c #22772A",
"[+	c #237C2B",
"}+	c #9AC39D",
"|+	c #C6DEC8",
"1+	c #388C3F",
"2+	c #24822D",
"3+	c #85B98A",
"4+	c #DAE9DB",
"5+	c #69AB6F",
"6+	c #208429",
"7+	c #20852A",
"8+	c #419831",
"9+	c #70AD38",
"0+	c #1C6D23",
"a+	c #337D39",
"b+	c #DDEADE",
"c+	c #A5C7A8",
"d+	c #428B48",
"e+	c #22792A",
"f+	c #7AAF7E",
"g+	c #418E48",
"h+	c #24812D",
"i+	c #78B17D",
"j+	c #E4EFE6",
"k+	c #68A96E",
"l+	c #208229",
"m+	c #71B33A",
"n+	c #8AC13F",
"o+	c #287626",
"p+	c #5D9863",
"q+	c #BED6C0",
"r+	c #C5DBC7",
"s+	c #77AC7C",
"t+	c #C8DDCA",
"u+	c #87B78B",
"v+	c #1E7D27",
"w+	c #288230",
"x+	c #84B788",
"y+	c #A9CDAD",
"z+	c #3A8E41",
"A+	c #208028",
"B+	c #2B872A",
"C+	c #8AC33F",
"D+	c #8FC540",
"E+	c #519530",
"F+	c #1E6F25",
"G+	c #38813E",
"H+	c #95BC98",
"I+	c #EBF2EB",
"J+	c #A9CAAB",
"K+	c #33833A",
"L+	c #C7DEC9",
"M+	c #79B27E",
"N+	c #539F33",
"O+	c #85BD3E",
"P+	c #317C28",
"Q+	c #55945B",
"R+	c #4B9052",
"S+	c #1D7425",
"T+	c #1E7726",
"U+	c #328539",
"V+	c #E3EEE4",
"W+	c #5A9E60",
"X+	c #338A2B",
"Y+	c #76B23A",
"Z+	c #1D6E23",
"`+	c #65A26A",
" @	c #D3E5D4",
".@	c #37873E",
"+@	c #207B26",
"@@	c #76B53B",
"#@	c #63A335",
"$@	c #1C7223",
"%@	c #99C19D",
"&@	c #B4D1B6",
"*@	c #207828",
"=@	c #25782C",
"-@	c #C1D8C3",
";@	c #75AA7A",
">@	c #509530",
",@	c #287526",
"'@	c #207428",
")@	c #639D68",
"!@	c #37833E",
"~@	c #287B27",
"{@	c #519931",
"]@	c #6FAD38",
"^@	c #277525",
"/@	c #3F892C",
"(@	c #70AE39",
"            . + @ # $ % & * = - ; >             ",
"        , ' ) ! ~ { ] ^ / ( _ : < [ } ,         ",
"      | 1 2 3 4 ~ { 5 6 7 8 9 0 a b c d e       ",
"    | f g h 3 4 ~ { i j 7 k l 0 m n o p q e     ",
"  , r s t u 3 4 ~ v w x y z A 0 a n o B C D ,   ",
"  E F G t H 3 4 ~ I J K L M N : O P n Q R S }   ",
"T U V W t H X Y Z `  ...+.@.9 #.: $.P b b P %.> ",
"&.*.V W t =.h -.;.>.,.'.).!.~.{.#.: O O O 0 ].; ",
"^./.(._.:.=.<.[.}.|.1.2.3.4.5.6.7.8.#.#.#.#.8.9.",
"0./.a.V G t b.c.d.e.f.g.h.i.j.k.l.m.n.o.p.q.q.r.",
"s.t.u.V W :.v.w.x.y.z.A.B.C.D.E.+.F.G.H.I.J.J.K.",
"L.M./.N.O.G P.Q.w.R.S.T.U.V.W.X.Y.Z.`. + + +.+i.",
"++@+t.u.V W :.t H #+$+%+&+*+{ =+C.-+i.i.i.i.-+C.",
";+L.>+/.N.O.G :.,+'+[.)+!+~+{+]+{ V.V.^+^+V.V./+",
"(+++_+:+<+V _.[+}+|+1+2+3+4+5+6+~ ~ 7+7+7+~ ~ 8+",
"9+0+a+b+c+d+e+f+b+g+=.H h+i+j+k+l+l+e.e.e.e.l+m+",
"n+o+0+p+q+r+s+t+u+G :.t v+w+x+y+z+A+Y Y Y Y B+C+",
"D+E+0+F+G+H+I+J+K+O.W :.t =.w+L+M+h h h h X N+. ",
"  O+P+0+++@+Q+R+S+(.V T+W :.U+V+W+=.=.=.=.X+'   ",
"  , Y+Z+0+++L.>+t./.a.N.O.T+`+ @.@G :.:.+@@@,   ",
"    | #@Z+0+++L.@+$@t.u.u.(.%@&@*@_.W s f |     ",
"      | Y+P+0+0+++@+>+t.t.=@-@;@N.V F r |       ",
"        , O+>@,@0+++L.L.>+'@)@!@~@{@E ,         ",
"            D+n+]@(+^@++L.s./@(@&.D+            "};
