/* XPM */
static char * runner32_xpm[] = {
"32 32 324 2",
"  	c None",
". 	c #94C942",
"+ 	c #93C841",
"@ 	c #7FBC3D",
"# 	c #58A535",
"$ 	c #39942F",
"% 	c #268B2C",
"& 	c #228A2B",
"* 	c #228B2C",
"= 	c #278F2D",
"- 	c #3A9A31",
"; 	c #59AA37",
"> 	c #7FBE3E",
", 	c #8EC540",
"' 	c #54A133",
") 	c #238429",
"! 	c #20842A",
"~ 	c #21862A",
"{ 	c #21872A",
"] 	c #22892B",
"^ 	c #3F9847",
"/ 	c #9ECAA2",
"( 	c #A6CFAA",
"_ 	c #51A558",
": 	c #23902D",
"< 	c #24922E",
"[ 	c #27942E",
"} 	c #56AB37",
"| 	c #8FC641",
"1 	c #92C841",
"2 	c #5FA635",
"3 	c #208028",
"4 	c #208128",
"5 	c #208229",
"6 	c #21882A",
"7 	c #309039",
"8 	c #E9F2EA",
"9 	c #FFFFFF",
"0 	c #F8FBF8",
"a 	c #49A351",
"b 	c #24932E",
"c 	c #24942E",
"d 	c #25962F",
"e 	c #26972F",
"f 	c #62B239",
"g 	c #33892B",
"h 	c #1F7E28",
"i 	c #1F8028",
"j 	c #208329",
"k 	c #6AAF70",
"l 	c #92C696",
"m 	c #24952F",
"n 	c #259830",
"o 	c #269A30",
"p 	c #38A233",
"q 	c #8BC340",
"r 	c #257F27",
"s 	c #1E7C27",
"t 	c #58A45E",
"u 	c #7FBD84",
"v 	c #259630",
"w 	c #269C31",
"x 	c #2D9F32",
"y 	c #8CC540",
"z 	c #257E27",
"A 	c #1E7A26",
"B 	c #228A2C",
"C 	c #ACD1AF",
"D 	c #CAE2CC",
"E 	c #2C9636",
"F 	c #269B31",
"G 	c #2D9E32",
"H 	c #318529",
"I 	c #1E7926",
"J 	c #278A30",
"K 	c #37933F",
"L 	c #3E9846",
"M 	c #6EB074",
"N 	c #51A458",
"O 	c #25902F",
"P 	c #259930",
"Q 	c #38A033",
"R 	c #5EA334",
"S 	c #1D7725",
"T 	c #1E7826",
"U 	c #1F7E27",
"V 	c #1F7F28",
"W 	c #288931",
"X 	c #CFE4D0",
"Y 	c #F9FBF9",
"Z 	c #A1CBA4",
"` 	c #90C395",
" .	c #9DCCA0",
"..	c #289231",
"+.	c #269930",
"@.	c #62B139",
"#.	c #1E7625",
"$.	c #1D7625",
"%.	c #1E7C26",
"&.	c #23852C",
"*.	c #B8D7BB",
"=.	c #ADD2B0",
"-.	c #C8E0CA",
";.	c #FEFEFE",
">.	c #66B06D",
",.	c #24942F",
"'.	c #25952F",
").	c #259730",
"!.	c #26952F",
"~.	c #539B31",
"{.	c #1D7524",
"].	c #1F7D27",
"^.	c #208228",
"/.	c #9EC8A2",
"(.	c #C2DCC4",
"_.	c #288A31",
":.	c #F3F8F3",
"<.	c #D8E9DA",
"[.	c #469D4E",
"}.	c #FDFEFD",
"|.	c #23912D",
"1.	c #24962F",
"2.	c #57AB37",
"3.	c #1F7524",
"4.	c #1D7424",
"5.	c #1E7B26",
"6.	c #81B785",
"7.	c #D7E8D9",
"8.	c #2E8D37",
"9.	c #499B50",
"0.	c #AED2B0",
"a.	c #228C2C",
"b.	c #BEDBC1",
"c.	c #FEFFFE",
"d.	c #52A55A",
"e.	c #27932E",
"f.	c #7EB93C",
"g.	c #1C7224",
"h.	c #1C7424",
"i.	c #5EA164",
"j.	c #E8F1E9",
"k.	c #389040",
"l.	c #21852A",
"m.	c #78B47D",
"n.	c #84BC89",
"o.	c #5AA761",
"p.	c #B6D8B9",
"q.	c #24912E",
"r.	c #559A31",
"s.	c #589C5E",
"t.	c #E8F0E9",
"u.	c #CDDFCE",
"v.	c #499850",
"w.	c #208429",
"x.	c #AACFAD",
"y.	c #5DA764",
"z.	c #D2E5D4",
"A.	c #FCFDFC",
"B.	c #409B48",
"C.	c #258F2F",
"D.	c #6DB374",
"E.	c #B8D9BB",
"F.	c #45A04D",
"G.	c #24902E",
"H.	c #238F2D",
"I.	c #59A937",
"J.	c #358229",
"K.	c #1C7324",
"L.	c #318639",
"M.	c #D8E8DA",
"N.	c #ECF4ED",
"O.	c #529C59",
"P.	c #DAE9DB",
"Q.	c #3D9545",
"R.	c #21882B",
"S.	c #6DB073",
"T.	c #E0EBE1",
"U.	c #AED1B1",
"V.	c #E0EEE2",
"W.	c #ECF4EC",
"X.	c #47A050",
"Y.	c #238E2D",
"Z.	c #238E2C",
"`.	c #3A9830",
" +	c #217424",
".+	c #1C7123",
"++	c #2D8434",
"@+	c #CCE0CE",
"#+	c #5FA465",
"$+	c #2E8936",
"%+	c #F2F7F2",
"&+	c #24872C",
"*+	c #248A2D",
"=+	c #CAE0CC",
"-+	c #DBEADC",
";+	c #7AB880",
">+	c #2B9034",
",+	c #228D2C",
"'+	c #278E2D",
")+	c #1C6F23",
"!+	c #1C7023",
"~+	c #1D7825",
"{+	c #27822F",
"]+	c #C2DBC4",
"^+	c #80B684",
"/+	c #388E40",
"(+	c #EFF5F0",
"_+	c #AACFAE",
":+	c #4E9F55",
"<+	c #62AA68",
"[+	c #238B2C",
"}+	c #1C6E23",
"|+	c #1F7C27",
"1+	c #26822F",
"2+	c #CEE2D0",
"3+	c #89B98D",
"4+	c #AACEAD",
"5+	c #70AE75",
"6+	c #22882B",
"7+	c #217224",
"8+	c #97C29B",
"9+	c #84B788",
"0+	c #E3EEE4",
"a+	c #FAFCFA",
"b+	c #63A869",
"c+	c #22882A",
"d+	c #26892B",
"e+	c #358029",
"f+	c #1D7525",
"g+	c #569C5C",
"h+	c #B5D3B8",
"i+	c #398E41",
"j+	c #E2EEE3",
"k+	c #F7FAF7",
"l+	c #559F5C",
"m+	c #39932F",
"n+	c #559931",
"o+	c #1C6D23",
"p+	c #1E7125",
"q+	c #6AA26F",
"r+	c #2C7D34",
"s+	c #2C8133",
"t+	c #308637",
"u+	c #3A8E42",
"v+	c #F4F8F5",
"w+	c #20852A",
"x+	c #57A434",
"y+	c #7EB83C",
"z+	c #45884A",
"A+	c #D6E5D7",
"B+	c #3F8946",
"C+	c #AECEB0",
"D+	c #5C9E62",
"E+	c #E5EFE6",
"F+	c #5AA161",
"G+	c #1F6E23",
"H+	c #1D6E24",
"I+	c #76A97B",
"J+	c #F5F9F6",
"K+	c #F6F9F6",
"L+	c #77AB7C",
"M+	c #70A875",
"N+	c #9EC4A1",
"O+	c #44934C",
"P+	c #EBF3EC",
"Q+	c #EFF6F0",
"R+	c #22812A",
"S+	c #238328",
"T+	c #529631",
"U+	c #3E8544",
"V+	c #CFE0D0",
"W+	c #BAD4BC",
"X+	c #C7DCC9",
"Y+	c #ECF3EC",
"Z+	c #277D2F",
"`+	c #539B59",
" @	c #9CC4A0",
".@	c #86B98B",
"+@	c #54A033",
"@@	c #8EC440",
"#@	c #207227",
"$@	c #92BA95",
"%@	c #F0F6F0",
"&@	c #418A46",
"*@	c #D0E3D2",
"=@	c #EDF4EE",
"-@	c #207E28",
";@	c #5D9F34",
">@	c #1B6C23",
",@	c #58965E",
"'@	c #96BE9A",
")@	c #207628",
"!@	c #2B8233",
"~@	c #A3C9A6",
"{@	c #5FA535",
"]@	c #2F7B28",
"^@	c #60A066",
"/@	c #6BA770",
"(@	c #32882A",
"_@	c #237225",
":@	c #1C7223",
"<@	c #99C19C",
"[@	c #34843A",
"}@	c #8BC23F",
"|@	c #D1E3D3",
"1@	c #DBE9DC",
"2@	c #257D27",
"3@	c #2E7E34",
"4@	c #A2C6A6",
"5@	c #1D7624",
"6@	c #318429",
"7@	c #1C6C23",
"8@	c #2D7C34",
"9@	c #D4E4D5",
"0@	c #649F69",
"a@	c #1E7524",
"b@	c #5EA234",
"c@	c #519631",
"d@	c #1E6E23",
"e@	c #1F7424",
"f@	c #529931",
"g@	c #559831",
"h@	c #217124",
"i@	c #217324",
"                . . + @ # $ % & * = - ; > + . .                 ",
"              . , ' ) ! ~ { ] ^ / ( _ : < [ } | .               ",
"          . 1 2 3 4 5 ! ~ 6 7 8 9 9 0 a b c d e f 1 .           ",
"        . , g h i 4 j ! ~ 6 k 9 9 9 9 l c m d n o p | .         ",
"      . q r s h i 4 j ! ~ 6 t 9 9 9 9 u c m v n o w x y .       ",
"    . , z A s h i 4 j ! ~ 6 B C 9 9 D E c m d n o F w G | .     ",
"    1 H I A s h i 4 5 ! ~ J K L M N O < b c d n P o o o Q 1     ",
"  . R S T A s U V 4 5 ! W X Y Z 9 `  ...< c m d n n +.n n @..   ",
". , #.$.T A %.U V 3 5 &.*.9 =.-.;.Z 9 >.< b ,.'.d ).).).d !.| . ",
". ~.{.$.T A %.].h 3 ^./.9 (._.:.<.[.}.D |.< b c m 1.1.1.m c 2.. ",
"+ 3.4.$.T A 5.s h i 6.9 7.8.9.9 0.a.b.c.d.|.< < c c c c c < e.+ ",
"f.g.h.$.S I A s U i.;.j.k.l.m.9 n.* o.9 p.: : q.< < < < < q.: > ",
"r.g.h.{.$.T A %.s.t.u.v.j w.x.9 y.& * z.A.B.C.D.E.F.G.G.: : H.I.",
"J.g.K.4.$.T I A L.M.N.O.5 w.P.9 Q.R.& S.T.U.V.9 W.X.H.H.Y.Z.Z.`.",
" +.+g.h.$.S T A %.++@+:.#+$+}.%+&+{ R.*+=+9 -+;+>+,+,+,+,+a.a.'+",
")+!+g.h.4.$.~+I A s {+]+^+/+(+_+l.~ { R.:+<+[+* a.a.a.a.a.* B & ",
"}+!+.+g.h.$.S T A 5.|+U 1+2+3+4+5+l.~ ~ 6 R.6+& & & & & & & ] R.",
"7+)+!+g.K.4.$.~+I A s ].8+9 9+0+a+b+! l.~ ~ { 6 6 c+c+c+6 6 6 d+",
"e+}+!+.+g.h.f+$.~+I A g+}.h+V i+j+k+l+w.! l.~ ~ ~ ~ ~ ~ ~ ~ ~ m+",
"n+o+}+p+q+r+4.$.S T s+0+j.t+U V u+j+v+l+j w.! ! ! w+w+w+! ! ! x+",
"y+o+}+z+9 A+B+4.$.S C+;.D+s |+U h u+E+v+F+5 5 j j j w.j j j 5 @ ",
"+ G+o+H+I+J+K+L+{.M+9 N+I A 5.s ].U O+P+Q+R+4 4 ^.^.^.^.^.4 S++ ",
". T+o+o+}+U+V+9 W+X+Y+Z+~+I A A s s ].`+ @.@V i 3 3 3 3 3 i +@. ",
". @@o+o+o+)+#@$@}.%@&@$.$.~+T A A 5.s s *@=@U h h h h h h -@, . ",
"  . ;@>@o+}+)+!+,@'@)@4.f+$.S T T A A !@A.~@s s s s s s s {@.   ",
"    1 ]@>@o+}+)+!+.+g.K.h.4.$.$.S T T ^@9 /@A A 5.5.5.5.(@1     ",
"    . @@_@>@o+}+}+!+!+:@g.h.4.{.$.$.S <@c.[@T I I A A z , .     ",
"      . }@_@>@o+o+}+)+!+.+g.g.h.h.4.$.|@1@$.S ~+T T 2@q .       ",
"        . @@]@>@o+o+}+)+!+!+:@g.g.h.3@A.4@{.5@$.$.6@, .         ",
"          . 1 ;@o+7@o+}+}+)+!+!+.+g.8@9@0@h.h.a@b@1 .           ",
"              . @@c@d@o+o+}+}+)+!+!+!+.+g.e@f@, .               ",
"                . . + y+g@e+h@}+}+i@J.r.f.+ . .                 "};
